<svg xmlns="http://www.w3.org/2000/svg" viewBox="0 0 64 64"><g id="Layer_49" data-name="Layer 49"><path d="M32,3A29,29,0,0,0,3,32c1.59,38.47,56.41,38.46,58,0A29,29,0,0,0,32,3Zm0,2a26.91,26.91,0,0,1,18.36,7.23L45.19,17.4c-4.89-1.74-9.91.12-13.19,4C21,9,3.44,24.36,14.39,36.52l5.84,5.84-8,8C-3.73,33.44,8.52,4.93,32,5ZM21.64,40.94,15.81,35.1C7,25.7,20.39,12.81,29.64,21.85c.48.52,1.88,1.88,2.4,2.31,2.85-3.3,6.9-6.47,11.54-5.15Zm24-21.19c5.77,2.64,7.17,11,2.53,15.36L32,51.3l-8.94-8.94ZM32,59a26.91,26.91,0,0,1-18.36-7.23l8-8,9.61,9.61.33.31c.22,0,.66,0,.88,0L49.61,36.52c5.39-5.09,4.07-14.77-2.47-18.25l4.63-4.63C67.73,30.56,55.48,59.07,32,59Z"/></g></svg>